<?xml version="1.0" encoding="UTF-8" standalone="no"?>
<svg
   xmlns:dc="http://purl.org/dc/elements/1.1/"
   xmlns:cc="http://creativecommons.org/ns#"
   xmlns:rdf="http://www.w3.org/1999/02/22-rdf-syntax-ns#"
   xmlns:svg="http://www.w3.org/2000/svg"
   xmlns="http://www.w3.org/2000/svg"
   viewBox="0 0 302.36267 302.36267"
   height="302.36267"
   width="302.36267"
   xml:space="preserve"
   id="svg2"
   version="1.1"><metadata
     id="metadata8"><rdf:RDF><cc:Work
         rdf:about=""><dc:format>image/svg+xml</dc:format><dc:type
           rdf:resource="http://purl.org/dc/dcmitype/StillImage" /></cc:Work></rdf:RDF></metadata><defs
     id="defs6"><clipPath
       id="clipPath18"
       clipPathUnits="userSpaceOnUse"><path
         id="path16"
         d="M 0,226.772 H 226.772 V 0 H 0 Z" /></clipPath><clipPath
       id="clipPath46"
       clipPathUnits="userSpaceOnUse"><path
         id="path44"
         d="M 41.4984,184.51 H 156.128 V 72.4735 H 41.4984 Z" /></clipPath></defs><g
     transform="matrix(1.3333333,0,0,-1.3333333,0,302.36267)"
     id="g10"><g
       id="g12"><g
         clip-path="url(#clipPath18)"
         id="g14"><g
           transform="translate(163.2696,159.283)"
           id="g20"><path
             id="path22"
             style="fill:#00a19a;fill-opacity:1;fill-rule:nonzero;stroke:none"
             d="m 0,0 h -20.057 v 21.725 c 0,3.118 -2.551,5.669 -5.669,5.669 h -38.118 c -4.677,0 -8.504,-3.826 -8.504,-8.503 V 0 h -20.057 c -3.131,0 -5.669,-2.538 -5.669,-5.669 v -40.953 c 0,-3.131 2.538,-5.669 5.669,-5.669 h 20.057 v -15.554 c 0,-4.677 3.827,-8.504 8.504,-8.504 h 35.283 c 4.677,0 8.504,3.827 8.504,8.504 v 15.554 H 0 c 3.131,0 5.669,2.538 5.669,5.669 V -5.669 C 5.669,-2.538 3.131,0 0,0" /></g><g
           transform="translate(65.8644,106.992)"
           id="g24"><path
             id="path26"
             style="fill:#315384;fill-opacity:1;fill-rule:nonzero;stroke:none"
             d="M 0,0 H -0.185" /></g><g
           transform="translate(154.2696,159.2831)"
           id="g28"><path
             id="path30"
             style="fill:#315384;fill-opacity:1;fill-rule:nonzero;stroke:none"
             d="m 0,0 h -20.057 v 21.725 c 0,3.118 -2.551,5.669 -5.669,5.669 h -43.787 c -1.559,0 -2.835,-1.275 -2.835,-2.834 V 0 h -22.891 c -1.566,0 -2.835,-1.269 -2.835,-2.835 v -46.621 c 0,-1.566 1.269,-2.835 2.835,-2.835 h 6.649 0.185 16.057 v -15.554 c 0,-4.677 3.827,-8.504 8.504,-8.504 h 35.283 c 4.677,0 8.504,3.827 8.504,8.504 v 15.554 H 0 c 3.131,0 5.669,2.538 5.669,5.669 V -5.669 C 5.669,-2.538 3.131,0 0,0" /></g><g
           transform="translate(159.4936,179.9394)"
           id="g32"><path
             id="path34"
             style="fill:#ffffff;fill-opacity:1;fill-rule:nonzero;stroke:none"
             d="m 0,0 2.313,-4.009 c -15.059,-10.638 -29.012,-24.103 -41.859,-40.394 -15.62,-19.806 -28.173,-50.654 -29.47,-55.362 -0.026,-0.096 -0.345,-1.262 -1.144,-2.629 -1.72,-2.946 -4.88,-5.477 -6.466,-4.748 -0.2,0.092 -0.373,0.267 -0.719,0.617 0,0 -0.951,1.026 -1.573,2.33 -2.888,6.048 -5.165,28.379 -12.718,37.991 -2.589,3.295 -7.299,7.577 -16.447,10.212 2.597,1.187 10.453,4.368 17.505,0.874 2.032,-1.007 3.414,-2.279 4.863,-3.632 4.595,-4.289 7.413,-9.218 9.167,-13.559 l 2.775,-6.167 c 9.096,16.291 20.081,31.298 32.955,45.02 C -27.944,-19.735 -14.338,-8.583 0,0" /></g><g
           transform="translate(159.4936,179.9394)"
           id="g36"><path
             id="path38"
             style="fill:none;stroke:#ffffff;stroke-width:2;stroke-linecap:butt;stroke-linejoin:miter;stroke-miterlimit:10;stroke-dasharray:none;stroke-opacity:1"
             d="m 0,0 2.313,-4.009 c -15.059,-10.638 -29.012,-24.103 -41.859,-40.394 -15.62,-19.806 -28.173,-50.654 -29.47,-55.362 -0.026,-0.096 -0.345,-1.262 -1.144,-2.629 -1.72,-2.946 -4.88,-5.477 -6.466,-4.748 -0.2,0.092 -0.373,0.267 -0.719,0.617 0,0 -0.951,1.026 -1.573,2.33 -2.888,6.048 -5.165,28.379 -12.718,37.991 -2.589,3.295 -7.299,7.577 -16.447,10.212 2.597,1.187 10.453,4.368 17.505,0.874 2.032,-1.007 3.414,-2.279 4.863,-3.632 4.595,-4.289 7.413,-9.218 9.167,-13.559 l 2.775,-6.167 c 9.096,16.291 20.081,31.298 32.955,45.02 C -27.944,-19.735 -14.338,-8.583 0,0 Z" /></g><g
           id="g40"><g
             id="g42" /><g
             id="g58"><g
               style="opacity:0.55999798"
               id="g56"
               clip-path="url(#clipPath46)"><g
                 id="g50"
                 transform="translate(152.4936,183.1296)"><path
                   id="path48"
                   style="fill:#ffffff;fill-opacity:1;fill-rule:nonzero;stroke:none"
                   d="M 0,0 2.313,-4.009 C -12.746,-14.647 -26.699,-28.112 -39.546,-44.403 -52.12,-60.347 -60.208,-79.077 -65.94,-94.38 c -0.244,-0.652 -5.501,-14.44 -5.501,-14.44 -0.813,-0.513 -1.973,-1.045 -3.148,-0.753 -3.417,0.852 -4.01,7.962 -5.084,13.938 -0.61,3.392 -3.406,19.797 -11.963,29.431 -6.142,6.916 -13.413,9.372 -16.447,10.212 2.597,1.187 10.453,4.368 17.505,0.874 2.032,-1.007 3.414,-2.279 4.863,-3.632 4.595,-4.289 7.413,-9.218 9.167,-13.559 l 2.775,-6.167 c 9.096,16.291 20.081,31.298 32.955,45.02 C -27.944,-19.735 -14.338,-8.583 0,0" /></g><g
                 id="g54"
                 transform="translate(152.4936,183.1296)"><path
                   id="path52"
                   style="fill:none;stroke:#ffffff;stroke-width:2;stroke-linecap:butt;stroke-linejoin:miter;stroke-miterlimit:10;stroke-dasharray:none;stroke-opacity:1"
                   d="M 0,0 2.313,-4.009 C -12.746,-14.647 -26.699,-28.112 -39.546,-44.403 -52.12,-60.347 -60.208,-79.077 -65.94,-94.38 c -0.244,-0.652 -5.501,-14.44 -5.501,-14.44 -0.813,-0.513 -1.973,-1.045 -3.148,-0.753 -3.417,0.852 -4.01,7.962 -5.084,13.938 -0.61,3.392 -3.406,19.797 -11.963,29.431 -6.142,6.916 -13.413,9.372 -16.447,10.212 2.597,1.187 10.453,4.368 17.505,0.874 2.032,-1.007 3.414,-2.279 4.863,-3.632 4.595,-4.289 7.413,-9.218 9.167,-13.559 l 2.775,-6.167 c 9.096,16.291 20.081,31.298 32.955,45.02 C -27.944,-19.735 -14.338,-8.583 0,0 Z" /></g></g></g></g><g
           transform="translate(71.8594,68.1107)"
           id="g60"><path
             id="path62"
             style="fill:#00a19a;fill-opacity:1;fill-rule:nonzero;stroke:none"
             d="M 0,0 -1.828,-4.273 H 1.789 Z M 3.503,-8.256 2.155,-5.117 H -2.181 L -3.542,-8.256 H -4.525 L -0.53,1.059 H 0.517 L 4.524,-8.256 Z" /></g><g
           transform="translate(71.8594,68.1107)"
           id="g64"><path
             id="path66"
             style="fill:none;stroke:#00a19a;stroke-width:1;stroke-linecap:butt;stroke-linejoin:miter;stroke-miterlimit:10;stroke-dasharray:none;stroke-opacity:1"
             d="M 0,0 -1.828,-4.273 H 1.789 Z M 3.503,-8.256 2.155,-5.117 H -2.181 L -3.542,-8.256 H -4.525 L -0.53,1.059 H 0.517 L 4.524,-8.256 Z" /></g><g
           transform="translate(82.7833,59.6907)"
           id="g68"><path
             id="path70"
             style="fill:#00a19a;fill-opacity:1;fill-rule:nonzero;stroke:none"
             d="m 0,0 c -1.878,0 -3.164,1.135 -3.164,3.668 v 5.811 h 0.933 V 3.668 c 0,-1.903 0.781,-2.811 2.243,-2.811 1.437,0 2.231,0.908 2.231,2.811 V 9.479 H 3.176 V 3.668 C 3.176,1.135 1.891,0 0,0" /></g><g
           transform="translate(82.7833,59.6907)"
           id="g72"><path
             id="path74"
             style="fill:none;stroke:#00a19a;stroke-width:1;stroke-linecap:butt;stroke-linejoin:miter;stroke-miterlimit:10;stroke-dasharray:none;stroke-opacity:1"
             d="m 0,0 c -1.878,0 -3.164,1.135 -3.164,3.668 v 5.811 h 0.933 V 3.668 c 0,-1.903 0.781,-2.811 2.243,-2.811 1.437,0 2.231,0.908 2.231,2.811 V 9.479 H 3.176 V 3.668 C 3.176,1.135 1.891,0 0,0 Z" /></g><g
           transform="translate(95.6231,67.72)"
           id="g76"><path
             id="path78"
             style="fill:#00a19a;fill-opacity:1;fill-rule:nonzero;stroke:none"
             d="M 0,0 C -0.706,0.428 -1.588,0.604 -3,0.604 H -4.298 V -7.021 H -3 c 1.651,0 2.609,0.24 3.353,0.833 0.857,0.692 1.335,1.763 1.335,2.986 C 1.688,-1.815 1.071,-0.644 0,0 M -2.723,-7.865 H -5.23 v 9.314 h 2.192 c 1.689,0 2.672,-0.202 3.555,-0.731 1.386,-0.82 2.117,-2.205 2.117,-3.957 0,-2.685 -1.714,-4.626 -5.357,-4.626" /></g><g
           transform="translate(95.6231,67.72)"
           id="g80"><path
             id="path82"
             style="fill:none;stroke:#00a19a;stroke-width:1;stroke-linecap:butt;stroke-linejoin:miter;stroke-miterlimit:10;stroke-dasharray:none;stroke-opacity:1"
             d="M 0,0 C -0.706,0.428 -1.588,0.604 -3,0.604 H -4.298 V -7.021 H -3 c 1.651,0 2.609,0.24 3.353,0.833 0.857,0.692 1.335,1.763 1.335,2.986 C 1.688,-1.815 1.071,-0.644 0,0 Z M -2.723,-7.865 H -5.23 v 9.314 h 2.192 c 1.689,0 2.672,-0.202 3.555,-0.731 1.386,-0.82 2.117,-2.205 2.117,-3.957 0,-2.685 -1.714,-4.626 -5.357,-4.626 z" /></g><path
           id="path84"
           style="fill:#00a19a;fill-opacity:1;fill-rule:nonzero;stroke:#00a19a;stroke-width:1;stroke-linecap:butt;stroke-linejoin:miter;stroke-miterlimit:10;stroke-dasharray:none;stroke-opacity:1"
           d="m 102.286,69.169 h 0.933 v -9.314 h -0.933 z" /><g
           transform="translate(109.8467,68.3245)"
           id="g86"><path
             id="path88"
             style="fill:#00a19a;fill-opacity:1;fill-rule:nonzero;stroke:none"
             d="M 0,0 V -8.47 H -0.933 V 0 h -2.13 V 0.845 H 2.13 V 0 Z" /></g><g
           transform="translate(109.8467,68.3245)"
           id="g90"><path
             id="path92"
             style="fill:none;stroke:#00a19a;stroke-width:1;stroke-linecap:butt;stroke-linejoin:miter;stroke-miterlimit:10;stroke-dasharray:none;stroke-opacity:1"
             d="M 0,0 V -8.47 H -0.933 V 0 h -2.13 V 0.845 H 2.13 V 0 Z" /></g><g
           transform="translate(119.5626,68.4759)"
           id="g94"><path
             id="path96"
             style="fill:#00a19a;fill-opacity:1;fill-rule:nonzero;stroke:none"
             d="m 0,0 c -2.155,0 -3.982,-1.803 -3.982,-3.933 0,-2.205 1.789,-3.995 3.982,-3.995 2.168,0 3.97,1.79 3.97,3.946 C 3.97,-1.803 2.168,0 0,0 m 0,-8.785 c -2.735,0 -4.928,2.168 -4.928,4.878 0,2.584 2.256,4.764 4.928,4.764 2.697,0 4.915,-2.168 4.915,-4.828 0,-2.633 -2.218,-4.814 -4.915,-4.814" /></g><g
           transform="translate(119.5626,68.4759)"
           id="g98"><path
             id="path100"
             style="fill:none;stroke:#00a19a;stroke-width:1;stroke-linecap:butt;stroke-linejoin:miter;stroke-miterlimit:10;stroke-dasharray:none;stroke-opacity:1"
             d="m 0,0 c -2.155,0 -3.982,-1.803 -3.982,-3.933 0,-2.205 1.789,-3.995 3.982,-3.995 2.168,0 3.97,1.79 3.97,3.946 C 3.97,-1.803 2.168,0 0,0 Z m 0,-8.785 c -2.735,0 -4.928,2.168 -4.928,4.878 0,2.584 2.256,4.764 4.928,4.764 2.697,0 4.915,-2.168 4.915,-4.828 0,-2.633 -2.218,-4.814 -4.915,-4.814 z" /></g><g
           transform="translate(132.0743,63.3333)"
           id="g102"><path
             id="path104"
             style="fill:#00a19a;fill-opacity:1;fill-rule:nonzero;stroke:none"
             d="M 0,0 2.608,-3.479 H 1.449 l -3.138,4.223 c 2.609,0 3.491,0.453 3.491,2.13 0,1.55 -0.958,2.117 -3.126,2.117 h -1.311 v -8.47 h -0.932 v 9.315 h 2.306 c 2.924,0 4.008,-1.059 4.008,-3 C 2.747,1.185 1.789,0.189 0,0" /></g><g
           transform="translate(132.0743,63.3333)"
           id="g106"><path
             id="path108"
             style="fill:none;stroke:#00a19a;stroke-width:1;stroke-linecap:butt;stroke-linejoin:miter;stroke-miterlimit:10;stroke-dasharray:none;stroke-opacity:1"
             d="M 0,0 2.608,-3.479 H 1.449 l -3.138,4.223 c 2.609,0 3.491,0.453 3.491,2.13 0,1.55 -0.958,2.117 -3.126,2.117 h -1.311 v -8.47 h -0.932 v 9.315 h 2.306 c 2.924,0 4.008,-1.059 4.008,-3 C 2.747,1.185 1.789,0.189 0,0 Z" /></g><path
           id="path110"
           style="fill:#00a19a;fill-opacity:1;fill-rule:nonzero;stroke:none"
           d="m 138.675,69.169 h 0.933 v -9.314 h -0.933 z m 0,0.466 -0.429,0.706 2.433,1.462 0.428,-0.73 z" /><path
           id="path112"
           style="fill:none;stroke:#00a19a;stroke-width:1;stroke-linecap:butt;stroke-linejoin:miter;stroke-miterlimit:10;stroke-dasharray:none;stroke-opacity:1"
           d="m 138.675,69.169 h 0.933 v -9.314 h -0.933 z m 0,0.466 -0.429,0.706 2.433,1.462 0.428,-0.73 z" /><g
           transform="translate(147.7481,68.1107)"
           id="g114"><path
             id="path116"
             style="fill:#00a19a;fill-opacity:1;fill-rule:nonzero;stroke:none"
             d="M 0,0 -1.827,-4.273 H 1.79 Z m 3.504,-8.256 -1.349,3.139 h -4.336 l -1.361,-3.139 h -0.982 l 3.995,9.315 h 1.046 l 4.007,-9.315 z" /></g><g
           transform="translate(147.7481,68.1107)"
           id="g118"><path
             id="path120"
             style="fill:none;stroke:#00a19a;stroke-width:1;stroke-linecap:butt;stroke-linejoin:miter;stroke-miterlimit:10;stroke-dasharray:none;stroke-opacity:1"
             d="M 0,0 -1.827,-4.273 H 1.79 Z m 3.504,-8.256 -1.349,3.139 h -4.336 l -1.361,-3.139 h -0.982 l 3.995,9.315 h 1.046 l 4.007,-9.315 z" /></g><g
           transform="translate(70.3848,42.6907)"
           id="g122"><path
             id="path124"
             style="fill:#315384;fill-opacity:1;fill-rule:nonzero;stroke:none"
             d="m 0,0 c -1.677,0 -2.823,1.097 -2.912,2.773 h 0.996 c 0.139,-1.248 0.895,-1.916 1.94,-1.916 1.059,0 1.841,0.782 1.841,1.853 0,1.02 -0.479,1.462 -2.08,1.954 -1.084,0.327 -1.374,0.466 -1.739,0.818 -0.416,0.392 -0.655,1.009 -0.655,1.652 0,1.449 1.084,2.509 2.584,2.509 1.524,0 2.608,-1.009 2.608,-2.522 h -0.97 c 0,1.009 -0.718,1.664 -1.664,1.664 -0.932,0 -1.613,-0.693 -1.613,-1.626 0,-0.429 0.177,-0.857 0.441,-1.084 0.24,-0.214 0.53,-0.328 1.373,-0.58 C 1.108,5.205 1.499,5.029 1.878,4.752 2.47,4.311 2.811,3.58 2.811,2.761 2.811,1.172 1.613,0 0,0" /></g><g
           transform="translate(70.3848,42.6907)"
           id="g126"><path
             id="path128"
             style="fill:none;stroke:#315384;stroke-width:1;stroke-linecap:butt;stroke-linejoin:miter;stroke-miterlimit:10;stroke-dasharray:none;stroke-opacity:1"
             d="m 0,0 c -1.677,0 -2.823,1.097 -2.912,2.773 h 0.996 c 0.139,-1.248 0.895,-1.916 1.94,-1.916 1.059,0 1.841,0.782 1.841,1.853 0,1.02 -0.479,1.462 -2.08,1.954 -1.084,0.327 -1.374,0.466 -1.739,0.818 -0.416,0.392 -0.655,1.009 -0.655,1.652 0,1.449 1.084,2.509 2.584,2.509 1.524,0 2.608,-1.009 2.608,-2.522 h -0.97 c 0,1.009 -0.718,1.664 -1.664,1.664 -0.932,0 -1.613,-0.693 -1.613,-1.626 0,-0.429 0.177,-0.857 0.441,-1.084 0.24,-0.214 0.53,-0.328 1.373,-0.58 C 1.108,5.205 1.499,5.029 1.878,4.752 2.47,4.311 2.811,3.58 2.811,2.761 2.811,1.172 1.613,0 0,0 Z" /></g><g
           transform="translate(81.0313,51.1107)"
           id="g130"><path
             id="path132"
             style="fill:#315384;fill-opacity:1;fill-rule:nonzero;stroke:none"
             d="M 0,0 -1.827,-4.273 H 1.79 Z m 3.504,-8.256 -1.349,3.139 h -4.336 l -1.361,-3.139 h -0.982 l 3.995,9.315 h 1.046 l 4.007,-9.315 z" /></g><g
           transform="translate(81.0313,51.1107)"
           id="g134"><path
             id="path136"
             style="fill:none;stroke:#315384;stroke-width:1;stroke-linecap:butt;stroke-linejoin:miter;stroke-miterlimit:10;stroke-dasharray:none;stroke-opacity:1"
             d="M 0,0 -1.827,-4.273 H 1.79 Z m 3.504,-8.256 -1.349,3.139 h -4.336 l -1.361,-3.139 h -0.982 l 3.995,9.315 h 1.046 l 4.007,-9.315 z" /></g><g
           transform="translate(96.0255,42.8548)"
           id="g138"><path
             id="path140"
             style="fill:#315384;fill-opacity:1;fill-rule:nonzero;stroke:none"
             d="M 0,0 -5.545,8.192 V 0 h -0.933 v 9.314 h 1.26 L 0,1.588 V 9.314 H 0.933 V 0 Z" /></g><g
           transform="translate(96.0255,42.8548)"
           id="g142"><path
             id="path144"
             style="fill:none;stroke:#315384;stroke-width:1;stroke-linecap:butt;stroke-linejoin:miter;stroke-miterlimit:10;stroke-dasharray:none;stroke-opacity:1"
             d="M 0,0 -5.545,8.192 V 0 h -0.933 v 9.314 h 1.26 L 0,1.588 V 9.314 H 0.933 V 0 Z" /></g><path
           id="path146"
           style="fill:#315384;fill-opacity:1;fill-rule:nonzero;stroke:#315384;stroke-width:1;stroke-linecap:butt;stroke-linejoin:miter;stroke-miterlimit:10;stroke-dasharray:none;stroke-opacity:1"
           d="m 101.77,52.169 h 0.933 v -9.314 h -0.933 z" /><g
           transform="translate(109.7081,51.3245)"
           id="g148"><path
             id="path150"
             style="fill:#315384;fill-opacity:1;fill-rule:nonzero;stroke:none"
             d="M 0,0 V -8.47 H -0.933 V 0 h -2.13 V 0.845 H 2.13 V 0 Z" /></g><g
           transform="translate(109.7081,51.3245)"
           id="g152"><path
             id="path154"
             style="fill:none;stroke:#315384;stroke-width:1;stroke-linecap:butt;stroke-linejoin:miter;stroke-miterlimit:10;stroke-dasharray:none;stroke-opacity:1"
             d="M 0,0 V -8.47 H -0.933 V 0 h -2.13 V 0.845 H 2.13 V 0 Z" /></g><g
           transform="translate(118.8565,51.1107)"
           id="g156"><path
             id="path158"
             style="fill:#315384;fill-opacity:1;fill-rule:nonzero;stroke:none"
             d="M 0,0 -1.827,-4.273 H 1.79 Z m 3.504,-8.256 -1.349,3.139 h -4.336 l -1.361,-3.139 h -0.982 l 3.995,9.315 h 1.046 l 4.007,-9.315 z" /></g><g
           transform="translate(118.8565,51.1107)"
           id="g160"><path
             id="path162"
             style="fill:none;stroke:#315384;stroke-width:1;stroke-linecap:butt;stroke-linejoin:miter;stroke-miterlimit:10;stroke-dasharray:none;stroke-opacity:1"
             d="M 0,0 -1.827,-4.273 H 1.79 Z m 3.504,-8.256 -1.349,3.139 h -4.336 l -1.361,-3.139 h -0.982 l 3.995,9.315 h 1.046 l 4.007,-9.315 z" /></g><g
           transform="translate(130.9395,46.3333)"
           id="g164"><path
             id="path166"
             style="fill:#315384;fill-opacity:1;fill-rule:nonzero;stroke:none"
             d="m 0,0 2.609,-3.479 h -1.16 l -3.137,4.223 c 2.608,0 3.491,0.453 3.491,2.13 0,1.55 -0.958,2.117 -3.126,2.117 h -1.311 v -8.47 h -0.932 v 9.315 h 2.305 c 2.925,0 4.009,-1.059 4.009,-3 C 2.748,1.185 1.79,0.189 0,0" /></g><g
           transform="translate(130.9395,46.3333)"
           id="g168"><path
             id="path170"
             style="fill:none;stroke:#315384;stroke-width:1;stroke-linecap:butt;stroke-linejoin:miter;stroke-miterlimit:10;stroke-dasharray:none;stroke-opacity:1"
             d="m 0,0 2.609,-3.479 h -1.16 l -3.137,4.223 c 2.608,0 3.491,0.453 3.491,2.13 0,1.55 -0.958,2.117 -3.126,2.117 h -1.311 v -8.47 h -0.932 v 9.315 h 2.305 c 2.925,0 4.009,-1.059 4.009,-3 C 2.748,1.185 1.79,0.189 0,0 Z" /></g><path
           id="path172"
           style="fill:#315384;fill-opacity:1;fill-rule:nonzero;stroke:#315384;stroke-width:1;stroke-linecap:butt;stroke-linejoin:miter;stroke-miterlimit:10;stroke-dasharray:none;stroke-opacity:1"
           d="m 137.919,52.169 h 0.933 v -9.314 h -0.933 z" /><g
           transform="translate(147.3702,51.1107)"
           id="g174"><path
             id="path176"
             style="fill:#315384;fill-opacity:1;fill-rule:nonzero;stroke:none"
             d="M 0,0 -1.828,-4.273 H 1.789 Z M 3.503,-8.256 2.155,-5.117 H -2.181 L -3.542,-8.256 H -4.525 L -0.53,1.059 H 0.517 L 4.524,-8.256 Z" /></g><g
           transform="translate(147.3702,51.1107)"
           id="g178"><path
             id="path180"
             style="fill:none;stroke:#315384;stroke-width:1;stroke-linecap:butt;stroke-linejoin:miter;stroke-miterlimit:10;stroke-dasharray:none;stroke-opacity:1"
             d="M 0,0 -1.828,-4.273 H 1.789 Z M 3.503,-8.256 2.155,-5.117 H -2.181 L -3.542,-8.256 H -4.525 L -0.53,1.059 H 0.517 L 4.524,-8.256 Z" /></g><g
           transform="translate(69.2452,28.7493)"
           id="g182"><path
             id="path184"
             style="fill:#315384;fill-opacity:1;fill-rule:nonzero;stroke:none"
             d="m 0,0 c -1.077,0 -1.814,0.705 -1.871,1.782 h 0.64 c 0.088,-0.802 0.575,-1.231 1.248,-1.231 0.68,0 1.182,0.503 1.182,1.191 0,0.656 -0.307,0.94 -1.337,1.256 -0.696,0.211 -0.883,0.3 -1.118,0.526 -0.266,0.251 -0.421,0.649 -0.421,1.062 0,0.932 0.697,1.612 1.661,1.612 0.981,0 1.677,-0.647 1.677,-1.62 H 1.037 c 0,0.649 -0.462,1.069 -1.069,1.069 -0.6,0 -1.037,-0.445 -1.037,-1.044 0,-0.276 0.113,-0.551 0.284,-0.698 0.153,-0.137 0.34,-0.21 0.883,-0.372 0.615,-0.186 0.867,-0.3 1.11,-0.478 0.381,-0.284 0.6,-0.754 0.6,-1.281 C 1.808,0.754 1.037,0 0,0" /></g><g
           transform="translate(78.6827,34.3968)"
           id="g186"><path
             id="path188"
             style="fill:#315384;fill-opacity:1;fill-rule:nonzero;stroke:none"
             d="m 0,0 c -1.386,0 -2.561,-1.158 -2.561,-2.528 0,-1.418 1.151,-2.569 2.561,-2.569 1.394,0 2.552,1.151 2.552,2.536 C 2.552,-1.158 1.394,0 0,0 m 0,-5.647 c -1.759,0 -3.168,1.393 -3.168,3.135 0,1.661 1.45,3.063 3.168,3.063 1.733,0 3.16,-1.394 3.16,-3.103 0,-1.693 -1.427,-3.095 -3.16,-3.095" /></g><g
           transform="translate(86.7403,28.8548)"
           id="g190"><path
             id="path192"
             style="fill:#315384;fill-opacity:1;fill-rule:nonzero;stroke:none"
             d="M 0,0 V 5.987 H 0.6 V 0.543 H 3.079 V 0 Z" /></g><g
           transform="translate(96.2422,28.7493)"
           id="g194"><path
             id="path196"
             style="fill:#315384;fill-opacity:1;fill-rule:nonzero;stroke:none"
             d="m 0,0 c -1.207,0 -2.033,0.729 -2.033,2.358 v 3.735 h 0.599 V 2.358 c 0,-1.223 0.502,-1.807 1.443,-1.807 0.923,0 1.433,0.584 1.433,1.807 v 3.735 h 0.6 V 2.358 C 2.042,0.729 1.216,0 0,0" /></g><g
           transform="translate(106.3272,28.7493)"
           id="g198"><path
             id="path200"
             style="fill:#315384;fill-opacity:1;fill-rule:nonzero;stroke:none"
             d="m 0,0 c -1.791,0 -3.144,1.329 -3.144,3.079 0,1.791 1.321,3.119 3.104,3.119 1.239,0 2.293,-0.632 2.754,-1.661 H 2.042 c -0.511,0.803 -1.216,1.11 -2.059,1.11 -1.425,0 -2.519,-1.101 -2.519,-2.543 0,-1.403 1.142,-2.553 2.528,-2.553 0.875,0 1.45,0.332 2.082,1.127 H 2.738 C 2.139,0.567 1.216,0 0,0" /></g><path
           id="path202"
           style="fill:#315384;fill-opacity:1;fill-rule:nonzero;stroke:none"
           d="m 113.956,34.842 h 0.6 v -5.987 h -0.6 z" /><g
           transform="translate(122.6241,34.3968)"
           id="g204"><path
             id="path206"
             style="fill:#315384;fill-opacity:1;fill-rule:nonzero;stroke:none"
             d="m 0,0 c -1.386,0 -2.561,-1.158 -2.561,-2.528 0,-1.418 1.151,-2.569 2.561,-2.569 1.394,0 2.552,1.151 2.552,2.536 C 2.552,-1.158 1.394,0 0,0 m 0,-5.647 c -1.759,0 -3.168,1.393 -3.168,3.135 0,1.661 1.45,3.063 3.168,3.063 1.733,0 3.16,-1.394 3.16,-3.103 0,-1.693 -1.427,-3.095 -3.16,-3.095" /></g><g
           transform="translate(134.8467,28.8548)"
           id="g208"><path
             id="path210"
             style="fill:#315384;fill-opacity:1;fill-rule:nonzero;stroke:none"
             d="M 0,0 -3.564,5.267 V 0 h -0.6 v 5.987 h 0.81 L 0,1.021 V 5.987 H 0.6 V 0 Z" /></g><g
           transform="translate(140.6055,28.8548)"
           id="g212"><path
             id="path214"
             style="fill:#315384;fill-opacity:1;fill-rule:nonzero;stroke:none"
             d="M 0,0 V 5.987 H 3.273 V 5.445 H 0.6 V 3.298 H 3.184 V 2.755 H 0.6 V 0.543 H 3.273 V 0 Z" /></g><g
           transform="translate(150.3096,28.7493)"
           id="g216"><path
             id="path218"
             style="fill:#315384;fill-opacity:1;fill-rule:nonzero;stroke:none"
             d="m 0,0 c -1.078,0 -1.815,0.705 -1.872,1.782 h 0.641 c 0.088,-0.802 0.575,-1.231 1.247,-1.231 0.68,0 1.183,0.503 1.183,1.191 0,0.656 -0.307,0.94 -1.337,1.256 -0.697,0.211 -0.883,0.3 -1.118,0.526 -0.267,0.251 -0.422,0.649 -0.422,1.062 0,0.932 0.698,1.612 1.661,1.612 0.981,0 1.678,-0.647 1.678,-1.62 H 1.037 c 0,0.649 -0.462,1.069 -1.069,1.069 -0.6,0 -1.037,-0.445 -1.037,-1.044 0,-0.276 0.113,-0.551 0.283,-0.698 0.154,-0.137 0.341,-0.21 0.883,-0.372 0.616,-0.186 0.867,-0.3 1.11,-0.478 0.381,-0.284 0.6,-0.754 0.6,-1.281 C 1.807,0.754 1.037,0 0,0" /></g></g></g></g></svg>